PathFileType	4	(X/Y/Z)	37_1_31_p1_0-722_filt_butterworth.trc
DataRate	CameraRate	NumFrames	NumMarkers	Units	OrigDataRate	OrigDataStartFrame	OrigNumFrames
59.0	59.0	5	27	m	59.0	180	722
Frame#	Time	RHip			RKnee			RAnkle			RBigToe			RSmallToe			RHeel			LHip			LKnee			LAnkle			LBigToe			LSmallToe			LHeel			Neck			Head			Nose			RShoulder			RElbow			RWrist			RThumb			RIndex			RPinky			LShoulder			LElbow			LWrist			LThumb			LIndex			LPinky			
		X1	Y1	Z1	X2	Y2	Z2	X3	Y3	Z3	X4	Y4	Z4	X5	Y5	Z5	X6	Y6	Z6	X7	Y7	Z7	X8	Y8	Z8	X9	Y9	Z9	X10	Y10	Z10	X11	Y11	Z11	X12	Y12	Z12	X13	Y13	Z13	X14	Y14	Z14	X15	Y15	Z15	X16	Y16	Z16	X17	Y17	Z17	X18	Y18	Z18	X19	Y19	Z19	X20	Y20	Z20	X21	Y21	Z21	X22	Y22	Z22	X23	Y23	Z23	X24	Y24	Z24	X25	Y25	Z25	X26	Y26	Z26	X27	Y27	Z27	
180	3.0508474576271185	0.3899570673957832	0.7251586161254286	0.5633896139337022	0.3970504019404825	0.8853052645586403	0.9834916915319608	0.40366049093876444	0.9993620756621882	1.385402664930252	0.3619982195736628	0.8014035719504016	1.4166319221855566	0.41030936003716134	0.8259626743103519	1.4207182807583052	0.3992887270780999	1.0536958154325624	1.452670817449814	0.18867977440588232	0.7602133496711206	0.567224746466327	0.15866160009126895	0.8947000419032362	0.9535550933407394	0.15271898522674496	1.0369271528636061	1.4072613683874102	0.14973023442093525	0.8523155652536111	1.422322758723232	0.10255458645600964	0.9314738602674754	1.4371573042782408	0.16315215286245183	1.057945389334275	1.4420979593687262	0.2841731320170976	0.5581713383409647	0.012400173489460207	0.27464894933365624	0.46811845228613774	-0.23107674623560528	0.26648446063926473	0.4211718781755857	-0.08202013304365371	0.44291957489560263	0.5695698967176749	0.1080207486388418	0.4773110589788532	0.6045170304518362	0.38838208932028884	0.35277934330147975	0.5876018918606297	0.5881237433083892	0.23564897592138506	0.6079605790636589	0.677090127064655	0.2399956709649241	0.6091289840788686	0.6883764870898169	0.2756065678437395	0.6044848570837964	0.6944713692066723	0.1143074350707779	0.6049532662561817	0.10630887131164606	0.09216684858116353	0.652069960310105	0.3921618358700474	0.21730136935065664	0.5715143291335761	0.599209722068036	0.26737324970276927	0.5761494824171328	0.671121153580588	0.27167536026202954	0.5771447022488067	0.6906210236380722	0.24610102644622367	0.6129366735917104	0.7015823423883606
181	3.067796610169492	0.39007273510781143	0.724973733450133	0.5625542417261752	0.39755080790957453	0.8863527485474496	0.9870373277001275	0.40158232831522955	0.9939012505374661	1.3853761731431378	0.3634857371777491	0.8015631810750726	1.4166366294794892	0.4105029628410378	0.8261431233168501	1.4207075403356926	0.3987565508893791	1.0513356866347199	1.4531513674262122	0.18861880051855365	0.7603561986916458	0.5681097378389279	0.15878455722009177	0.8948077787774508	0.9554055980001143	0.1527290555544703	1.036896452142684	1.408810839042708	0.14754384909082813	0.8522942620917114	1.422282097681262	0.10251253886159327	0.931456581447297	1.4385141453700128	0.1631566839720623	1.0580465598158313	1.442700744279164	0.28417125797357395	0.5581643444386545	0.012385639408226108	0.2746719157960143	0.4681271738024534	-0.230994309597672	0.2665349213708179	0.4210404535470641	-0.08263391660157528	0.44292459592881483	0.5695709063787011	0.10803360770969624	0.4772811740546258	0.6044911102168722	0.3883949399835795	0.35277847439770954	0.5876013925433982	0.5880952000778025	0.235490637809076	0.6069792047231454	0.6736065182548583	0.24008478548287665	0.6091151496479719	0.687324672511676	0.27426869353580163	0.6054461735682349	0.6949392564032567	0.11425525843909871	0.6048711433361083	0.1062383507773413	0.0921206297203117	0.6529831017387566	0.3933527258634235	0.2182133025053965	0.5754431016565621	0.601249669349585	0.2675344706190097	0.5761674716525699	0.6710946759989304	0.27282544342253146	0.5767901469827325	0.6910625680948232	0.2461099039170741	0.6129451853733563	0.7016118068437072
182	3.0847457627118646	0.3902834543156764	0.7248879665714917	0.5622514005211344	0.39795495999869374	0.8876819235917696	0.9888727362306291	0.4001516726968733	0.9896527715122249	1.3853588605410005	0.36397942449146586	0.8017340486505825	1.4166495896969056	0.41057796022713994	0.826219963421578	1.420725012466192	0.39839850675105265	1.0485775761404283	1.4538180744751057	0.18894431432769143	0.7593496516280875	0.570205842439968	0.15907141590651136	0.8954714261824215	0.9576574941374141	0.1527333539514394	1.0368418620637032	1.4093135710663163	0.14700052998646043	0.8506898494122934	1.4213973930742732	0.10249963570857543	0.9314431532544925	1.4389946896563948	0.16314825122737253	1.0580506751789642	1.4427290919863962	0.28417548875407245	0.5581517462635297	0.012386628236362919	0.2746535553911923	0.46813677012239746	-0.23096008961223	0.2667522490274129	0.4197071405468733	-0.08274940121040865	0.44294689767527906	0.5695796338464616	0.10804500074009868	0.4772714531415204	0.6044920108710964	0.38839697282728797	0.3527689826661782	0.5875957483231653	0.5881800409525134	0.235337237483918	0.6062843477801099	0.6716892454745143	0.2400990960285999	0.6091096210619009	0.6868587636172107	0.272709471657519	0.6061182309731623	0.6958530161936864	0.11422243124346408	0.6048452080573045	0.10624375870881243	0.09209620255539033	0.6534844163850254	0.3938978240494004	0.21859880597441642	0.576972993888086	0.6020427151315331	0.26763283601541926	0.5762332920474605	0.6712363831477269	0.27261680049884984	0.5765497286483574	0.6917682543565362	0.2462087274819026	0.6129497897520243	0.7016248449588438
183	3.101694915254237	0.39050386909062856	0.7250222271874286	0.5622680597750398	0.39818822133341947	0.8889781541986308	0.9898582818780156	0.3997084296529991	0.9879141352754707	1.3853418839567058	0.3631177153214006	0.8028454013335778	1.4169533871517128	0.41057451453449334	0.8261835046942079	1.4207558415690296	0.3983913330201928	1.047369020092599	1.4545894025136406	0.18988147792627874	0.7559952444676413	0.5729476281540549	0.15945445496069477	0.8965413956438586	0.9596889525917079	0.15272586256140902	1.0367928900919112	1.4092532483231603	0.14782229366284186	0.8465223071605424	1.419989063774816	0.10248573043006853	0.9313956530297363	1.438968545190817	0.1631347686233367	1.0579997499185727	1.4425943180543572	0.28417996976572635	0.5581390026863625	0.012396744425790321	0.27461645909889604	0.4681413931863391	-0.2309607360383571	0.26727735193699975	0.41640426507333994	-0.08239037537196389	0.4429742687912517	0.5695959192422857	0.1080445663888057	0.47728727914545577	0.6045250817792829	0.3883801593960888	0.35276439237795054	0.5875937922529817	0.5882398352885089	0.23527047148018396	0.6060622161187865	0.6712363394573873	0.24008081459758407	0.6091150590926541	0.6868026931921706	0.2715124523392688	0.6065445981825299	0.6967909722465588	0.11422013302299103	0.6049019260959733	0.10663057163801626	0.09209532780155537	0.6536142793058406	0.3939685875530825	0.21862514338162273	0.5770132885514151	0.6020500252741751	0.26766124028529287	0.5763688979112416	0.6714442734703003	0.27193993074212947	0.576467503018976	0.6921881704738208	0.24665695588113914	0.612947542934303	0.7016256303732544
184	3.1186440677966103	0.3906262343847479	0.7252048273294011	0.5623126558006114	0.39827038616987154	0.8898452576809301	0.9904826911917242	0.3997734785671585	0.9877998389029359	1.3852964324454393	0.362329792211077	0.8059105082419284	1.4178803922593746	0.4105565496929723	0.8261358651745889	1.4207910864750424	0.398300047390657	1.0469466433544388	1.4549281388965585	0.1911188537356124	0.7510220649311562	0.5750599948700421	0.15976441784012332	0.8974841113941446	0.9609595751661788	0.1527102398126787	1.0367644831718679	1.4091231848751908	0.14921209826178555	0.840866265842273	1.4184003978282993	0.1024821731767815	0.9313278671371613	1.4388233295778918	0.16312251679998258	1.0579706295068703	1.4425249124685746	0.28418113003055856	0.5581346220118457	0.012404359433362318	0.2745887539224653	0.46816996333276867	-0.230985231587898	0.2680013712332863	0.4119619203358611	-0.08170843338682052	0.4429929330450543	0.5696125548765044	0.10803128780843332	0.4773219956179505	0.6045795695400498	0.38835845068423813	0.3527600531262266	0.5875983790529855	0.5882499426495813	0.2352733369288808	0.6061280889875965	0.6714061228539214	0.2400635065645537	0.6091246811616357	0.6868705027461909	0.27093275991028143	0.6067105032633338	0.6971203825801703	0.11423800508527773	0.6050270718853589	0.1076316747538897	0.0921094622486566	0.6535980334952095	0.39388319083570533	0.2185471679921217	0.5767094835941404	0.6018761829759716	0.2676255344239812	0.5765669382592815	0.6715823482539494	0.27179565711051407	0.5764191350005131	0.6919232834930569	0.2476847563123974	0.6129361308041047	0.701621581363139
